<svg id="visual" viewBox="0 0 900 600" width="900" height="600" xmlns="http://www.w3.org/2000/svg" xmlns:xlink="http://www.w3.org/1999/xlink" version="1.1"><path d="M0 49L13.7 50C27.3 51 54.7 53 82 52C109.3 51 136.7 47 163.8 51C191 55 218 67 245.2 76C272.3 85 299.7 91 327 95C354.3 99 381.7 101 409 91C436.3 81 463.7 59 491 58C518.3 57 545.7 77 573 86C600.3 95 627.7 93 654.8 85C682 77 709 63 736.2 55C763.3 47 790.7 45 818 52C845.3 59 872.7 75 886.3 83L900 91L900 0L886.3 0C872.7 0 845.3 0 818 0C790.7 0 763.3 0 736.2 0C709 0 682 0 654.8 0C627.7 0 600.3 0 573 0C545.7 0 518.3 0 491 0C463.7 0 436.3 0 409 0C381.7 0 354.3 0 327 0C299.7 0 272.3 0 245.2 0C218 0 191 0 163.8 0C136.7 0 109.3 0 82 0C54.7 0 27.3 0 13.7 0L0 0Z" fill="#c98b7f"></path><path d="M0 193L13.7 193C27.3 193 54.7 193 82 196C109.3 199 136.7 205 163.8 212C191 219 218 227 245.2 220C272.3 213 299.7 191 327 201C354.3 211 381.7 253 409 263C436.3 273 463.7 251 491 232C518.3 213 545.7 197 573 187C600.3 177 627.7 173 654.8 179C682 185 709 201 736.2 212C763.3 223 790.7 229 818 232C845.3 235 872.7 235 886.3 235L900 235L900 89L886.3 81C872.7 73 845.3 57 818 50C790.7 43 763.3 45 736.2 53C709 61 682 75 654.8 83C627.7 91 600.3 93 573 84C545.7 75 518.3 55 491 56C463.7 57 436.3 79 409 89C381.7 99 354.3 97 327 93C299.7 89 272.3 83 245.2 74C218 65 191 53 163.8 49C136.7 45 109.3 49 82 50C54.7 51 27.3 49 13.7 48L0 47Z" fill="#bb7367"></path><path d="M0 313L13.7 312C27.3 311 54.7 309 82 310C109.3 311 136.7 315 163.8 313C191 311 218 303 245.2 290C272.3 277 299.7 259 327 265C354.3 271 381.7 301 409 308C436.3 315 463.7 299 491 288C518.3 277 545.7 271 573 272C600.3 273 627.7 281 654.8 287C682 293 709 297 736.2 307C763.3 317 790.7 333 818 329C845.3 325 872.7 301 886.3 289L900 277L900 233L886.3 233C872.7 233 845.3 233 818 230C790.7 227 763.3 221 736.2 210C709 199 682 183 654.8 177C627.7 171 600.3 175 573 185C545.7 195 518.3 211 491 230C463.7 249 436.3 271 409 261C381.7 251 354.3 209 327 199C299.7 189 272.3 211 245.2 218C218 225 191 217 163.8 210C136.7 203 109.3 197 82 194C54.7 191 27.3 191 13.7 191L0 191Z" fill="#ad5c4f"></path><path d="M0 451L13.7 442C27.3 433 54.7 415 82 415C109.3 415 136.7 433 163.8 442C191 451 218 451 245.2 442C272.3 433 299.7 415 327 420C354.3 425 381.7 453 409 460C436.3 467 463.7 453 491 430C518.3 407 545.7 375 573 360C600.3 345 627.7 347 654.8 354C682 361 709 373 736.2 397C763.3 421 790.7 457 818 463C845.3 469 872.7 445 886.3 433L900 421L900 275L886.3 287C872.7 299 845.3 323 818 327C790.7 331 763.3 315 736.2 305C709 295 682 291 654.8 285C627.7 279 600.3 271 573 270C545.7 269 518.3 275 491 286C463.7 297 436.3 313 409 306C381.7 299 354.3 269 327 263C299.7 257 272.3 275 245.2 288C218 301 191 309 163.8 311C136.7 313 109.3 309 82 308C54.7 307 27.3 309 13.7 310L0 311Z" fill="#964f44"></path><path d="M0 601L13.7 601C27.3 601 54.7 601 82 601C109.3 601 136.7 601 163.8 601C191 601 218 601 245.2 601C272.3 601 299.7 601 327 601C354.3 601 381.7 601 409 601C436.3 601 463.7 601 491 601C518.3 601 545.7 601 573 601C600.3 601 627.7 601 654.8 601C682 601 709 601 736.2 601C763.3 601 790.7 601 818 601C845.3 601 872.7 601 886.3 601L900 601L900 419L886.3 431C872.7 443 845.3 467 818 461C790.7 455 763.3 419 736.2 395C709 371 682 359 654.8 352C627.7 345 600.3 343 573 358C545.7 373 518.3 405 491 428C463.7 451 436.3 465 409 458C381.7 451 354.3 423 327 418C299.7 413 272.3 431 245.2 440C218 449 191 449 163.8 440C136.7 431 109.3 413 82 413C54.7 413 27.3 431 13.7 440L0 449Z" fill="#7f433a"></path></svg>