<svg id="visual" viewBox="0 0 900 600" width="900" height="600" xmlns="http://www.w3.org/2000/svg" xmlns:xlink="http://www.w3.org/1999/xlink" version="1.1"><rect x="0" y="0" width="900" height="600" fill="#f3b1a7"></rect><defs><linearGradient id="grad1_0" x1="33.3%" y1="0%" x2="100%" y2="100%"><stop offset="20%" stop-color="#cf837e" stop-opacity="1"></stop><stop offset="80%" stop-color="#cf837e" stop-opacity="1"></stop></linearGradient></defs><defs><linearGradient id="grad1_1" x1="33.3%" y1="0%" x2="100%" y2="100%"><stop offset="20%" stop-color="#cf837e" stop-opacity="1"></stop><stop offset="80%" stop-color="#f3b1a7" stop-opacity="1"></stop></linearGradient></defs><defs><linearGradient id="grad2_0" x1="0%" y1="0%" x2="66.7%" y2="100%"><stop offset="20%" stop-color="#cf837e" stop-opacity="1"></stop><stop offset="80%" stop-color="#cf837e" stop-opacity="1"></stop></linearGradient></defs><defs><linearGradient id="grad2_1" x1="0%" y1="0%" x2="66.7%" y2="100%"><stop offset="20%" stop-color="#f3b1a7" stop-opacity="1"></stop><stop offset="80%" stop-color="#cf837e" stop-opacity="1"></stop></linearGradient></defs><g transform="translate(900, 0)"><path d="M0 486.7C-54 459.5 -108 432.2 -171.4 413.9C-234.9 395.6 -307.8 386.1 -344.2 344.2C-380.6 302.2 -380.5 227.7 -398.2 164.9C-415.9 102.1 -451.3 51.1 -486.7 0L0 0Z" fill="#e19a92"></path><path d="M0 243.4C-27 229.7 -54 216.1 -85.7 206.9C-117.4 197.8 -153.9 193.1 -172.1 172.1C-190.3 151.1 -190.3 113.9 -199.1 82.5C-207.9 51.1 -225.7 25.5 -243.4 0L0 0Z" fill="#cf837e"></path></g><g transform="translate(0, 600)"><path d="M0 -486.7C63 -479.7 126 -472.7 186.3 -449.7C246.6 -426.7 304.1 -387.6 336.6 -336.6C369.1 -285.6 376.4 -222.6 397.3 -164.6C418.1 -106.5 452.4 -53.2 486.7 0L0 0Z" fill="#e19a92"></path><path d="M0 -243.4C31.5 -239.9 63 -236.4 93.1 -224.8C123.3 -213.3 152.1 -193.8 168.3 -168.3C184.5 -142.8 188.2 -111.3 198.6 -82.3C209.1 -53.2 226.2 -26.6 243.4 0L0 0Z" fill="#cf837e"></path></g></svg>