<svg id="visual" viewBox="0 0 800 800" width="800" height="800" xmlns="http://www.w3.org/2000/svg" xmlns:xlink="http://www.w3.org/1999/xlink" version="1.1"><rect x="0" y="0" width="800" height="800" fill="#BB004B"></rect><defs><linearGradient id="grad1_0" x1="0%" y1="0%" x2="100%" y2="100%"><stop offset="30%" stop-color="#f40552" stop-opacity="1"></stop><stop offset="70%" stop-color="#f40552" stop-opacity="1"></stop></linearGradient></defs><defs><linearGradient id="grad1_1" x1="0%" y1="0%" x2="100%" y2="100%"><stop offset="30%" stop-color="#f40552" stop-opacity="1"></stop><stop offset="70%" stop-color="#bb004b" stop-opacity="1"></stop></linearGradient></defs><defs><linearGradient id="grad2_0" x1="0%" y1="0%" x2="100%" y2="100%"><stop offset="30%" stop-color="#f40552" stop-opacity="1"></stop><stop offset="70%" stop-color="#f40552" stop-opacity="1"></stop></linearGradient></defs><defs><linearGradient id="grad2_1" x1="0%" y1="0%" x2="100%" y2="100%"><stop offset="30%" stop-color="#bb004b" stop-opacity="1"></stop><stop offset="70%" stop-color="#f40552" stop-opacity="1"></stop></linearGradient></defs><g transform="translate(800, 0)"><path d="M0 509.1C-49.2 485.1 -98.3 461.1 -143.4 441.3C-188.5 421.5 -229.5 406 -281 386.7C-332.5 367.4 -394.5 344.3 -411.9 299.3C-429.3 254.2 -402.1 187 -410.9 133.5C-419.6 79.9 -464.4 40 -509.1 0L0 0Z" fill="#d7004f"></path><path d="M0 254.6C-24.6 242.5 -49.2 230.5 -71.7 220.6C-94.2 210.8 -114.7 203 -140.5 193.4C-166.2 183.7 -197.2 172.2 -205.9 149.6C-214.6 127.1 -201 93.5 -205.4 66.7C-209.8 40 -232.2 20 -254.6 0L0 0Z" fill="#f40552"></path></g><g transform="translate(0, 800)"><path d="M0 -509.1C43.9 -473.5 87.8 -437.9 137.8 -424.2C187.9 -410.5 244.1 -418.7 292.1 -402.1C340.2 -385.4 380.1 -343.8 411.9 -299.3C443.7 -254.7 467.3 -207 482.2 -156.7C497 -106.3 503.1 -53.1 509.1 0L0 0Z" fill="#d7004f"></path><path d="M0 -254.6C21.9 -236.7 43.9 -218.9 68.9 -212.1C93.9 -205.2 122 -209.4 146.1 -201C170.1 -192.7 190 -171.9 205.9 -149.6C221.8 -127.3 233.7 -103.5 241.1 -78.3C248.5 -53.1 251.5 -26.6 254.6 0L0 0Z" fill="#f40552"></path></g></svg>